inDegrees=yes
name=ik_20201104_152403_orientations
DataType=double
version=3
OpenSimVersion=4.1
endheader
time	pelvis_tilt	pelvis_list	pelvis_rotation	pelvis_tx	pelvis_ty	pelvis_tz	hip_flexion_r	hip_adduction_r	hip_rotation_r	knee_angle_r	knee_angle_r_beta	ankle_angle_r	subtalar_angle_r	mtp_angle_r	hip_flexion_l	hip_adduction_l	hip_rotation_l	knee_angle_l	knee_angle_l_beta	ankle_angle_l	subtalar_angle_l	mtp_angle_l	lumbar_extension	lumbar_bending	lumbar_rotation	arm_flex_r	arm_add_r	arm_rot_r	elbow_flex_r	pro_sup_r	wrist_flex_r	wrist_dev_r	arm_flex_l	arm_add_l	arm_rot_l	elbow_flex_l	pro_sup_l	wrist_flex_l	wrist_dev_l
16.95000000000032	46.86124895399371	-20.02731296690163	-19.86092462733293	0	0.9399999999999999	0	39.41957837749533	-9.960027980577483	0	55.43396397559964	0.9675051888061392	-4.995271785559779	0	0	48.68896386166397	-7.321859732934274	3.367931966745509	90.46174719822751	1.578855335715825	-4.995271785559779	0	0	0	0	0	0	-10.12416902869323	0	68.26650367174869	44.83475764466223	0	0	0	-10.12416902869323	0	68.26650367174869	44.83475764466223	0	0
16.96666666666698	46.66668194862297	-20.0167015316966	-19.94527795400652	0	0.9399999999999999	0	39.42065242300816	-9.960054690923732	0	55.43465445488626	0.9675172399431076	-4.995275906210549	0	0	48.7413538289318	-7.274748454169806	3.404526227808421	91.39651599022716	1.59517012888111	-4.995275906210549	0	0	0	0	0	0	-10.12464808491929	0	68.26780293361786	44.83484500255766	0	0	0	-10.12464808491929	0	68.26780293361786	44.83484500255766	0	0
16.98333333333365	46.46398195941609	-20.02243497462568	-20.02054506206998	0	0.9399999999999999	0	39.42173160249512	-9.960081522441264	0	55.4353481395658	0.9675293470247361	-4.995280044909495	0	0	48.78214440410844	-7.22435551305816	3.435146278696491	92.28559310250621	1.610687451794502	-4.995280044909495	0	0	0	0	0	0	-10.12512941482713	0	68.26910840535254	44.83493276526823	0	0	0	-10.12512941482713	0	68.26910840535254	44.83493276526823	0	0
17.00000000000032	46.23757146806532	-20.06687792257036	-20.08678946958095	0	0.9399999999999999	0	39.42261021701246	-9.960103333522252	0	55.43591344148126	0.9675392134044288	-4.995283407873013	0	0	48.80091801865677	-7.162964765895185	3.454439498285782	93.09207328775524	1.624763186379192	-4.995283407873013	0	0	0	0	0	0	-10.12552158303813	0	68.2701712492391	44.83500412987439	0	0	0	-10.12552158303813	0	68.2701712492391	44.83500412987439	0	0
17.01666666666698	46.00763501805633	-20.13457752216384	-20.20378561848267	0	0.9399999999999999	0	39.42346297542374	-9.960124481221058	0	55.43646243324744	0.967548795118315	-4.995286667662509	0	0	48.81294470923525	-7.087136609354488	3.476851887208564	93.85738623517888	1.638120417119876	-4.995286667662509	0	0	0	0	0	0	-10.1259023917605	0	68.27120281130478	44.83507333901821	0	0	0	-10.1259023917605	0	68.27120281130478	44.83507333901821	0	0
17.03333333333365	45.76465314033234	-20.23562993821282	-20.34533189622336	0	0.9399999999999999	0	39.42420561337062	-9.960142867670696	0	55.43694107670658	0.9675571490226202	-4.995289500731745	0	0	48.80989570102583	-6.997657394479509	3.495340686994599	94.547889658562	1.650171975354204	-4.995289500731745	0	0	0	0	0	0	-10.1262343129516	0	68.27210115703443	44.83513353108444	0	0	0	-10.1262343129516	0	68.27210115703443	44.83513353108444	0	0
17.05000000000031	45.58192317483549	-20.29188859231955	-20.4343946362449	0	0.9399999999999999	0	39.42509113106433	-9.960164818853256	0	55.43751102869788	0.9675670965614467	-4.995292883496536	0	0	48.83669092927794	-6.937144496070404	3.513523471759356	95.26546456864408	1.662696020164839	-4.995292883496536	0	0	0	0	0	0	-10.12662972664001	0	68.27317234643422	44.83520538140967	0	0	0	-10.12662972664001	0	68.27317234643422	44.83520538140967	0	0
17.06666666666698	45.44766218161806	-20.27221364416325	-20.50352551223266	0	0.9399999999999999	0	39.42594564037538	-9.960185990778916	0	55.43806107429727	0.967576696668192	-4.995296145529888	0	0	48.86718381534612	-6.900798218634725	3.541557986472549	95.9326142013871	1.674339977859675	-4.995296145529888	0	0	0	0	0	0	-10.12701134154425	0	68.27420602410838	44.83527469072928	0	0	0	-10.12701134154425	0	68.27420602410838	44.83527469072928	0	0
17.08333333333364	45.34701146494304	-20.20488333618922	-20.52944692817006	0	0.9399999999999999	0	39.42705514586378	-9.960213531159237	0	55.4387740061744	0.9675891396767904	-4.995300389909434	0	0	48.89533842858382	-6.890501158436286	3.570984169506642	96.52312593545844	1.684646351890881	-4.995300389909434	0	0	0	0	0	0	-10.12750623424484	0	68.2755481751539	44.83536482262224	0	0	0	-10.12750623424484	0	68.2755481751539	44.83536482262224	0	0
17.10000000000031	45.2799796398505	-20.14372877854325	-20.56734992231002	0	0.9399999999999999	0	39.42787841674875	-9.960233910514308	0	55.4393040068818	0.9675983899341725	-4.995303528639901	0	0	48.92634744329631	-6.88007047335195	3.598706419413165	97.01672540173288	1.693261287763457	-4.995303528639901	0	0	0	0	0	0	-10.12787397372536	0	68.27654406166168	44.83543155485117	0	0	0	-10.12787397372536	0	68.27654406166168	44.83543155485117	0	0
17.11666666666698	45.2181885120177	-20.12362829604024	-20.58815129710309	0	0.9399999999999999	0	39.42871559818872	-9.960254637228411	0	55.43984276930271	0.9676077931123034	-4.995306720706389	0	0	48.94540910730766	-6.867786353324868	3.612715193100745	97.37774586676314	1.699562283545316	-4.995306720706389	0	0	0	0	0	0	-10.12824784839696	0	68.27755677635686	44.83549942539985	0	0	0	-10.12824784839696	0	68.27755677635686	44.83549942539985	0	0
17.13333333333364	45.14643019708745	-20.14846287593388	-20.60474424353651	0	0.9399999999999999	0	39.42964222278304	-9.960277588291479	0	55.44043875096767	0.9676181949546385	-4.995310255375603	0	0	48.94339419977548	-6.845303515617369	3.612901597615896	97.58711201112536	1.703216412106643	-4.995310255375603	0	0	0	0	0	0	-10.12866151746126	0	68.27867769027152	44.83557457657787	0	0	0	-10.12866151746126	0	68.27867769027152	44.83557457657787	0	0
17.15000000000031	45.08541560678637	-20.19690383101616	-20.61939920577538	0	0.9399999999999999	0	39.43044961819417	-9.960297557701598	0	55.44095857214263	0.967627267545663	-4.995313329837102	0	0	48.93562250949162	-6.824334641099684	3.60554533006807	97.68697810998363	1.704959404342842	-4.995313329837102	0	0	0	0	0	0	-10.12902223742906	0	68.27965436978911	44.83563998274445	0	0	0	-10.12902223742906	0	68.27965436978911	44.83563998274445	0	0
17.16666666666697	45.01908353958947	-20.28265389489209	-20.65848757730365	0	0.9399999999999999	0	39.43053460884597	-9.960299490935093	0	55.44101690627363	0.9676282856683154	-4.995313622522095	0	0	48.91369435952539	-6.794316503780061	3.598154828302595	97.6932690007533	1.705069201099656	-4.995313622522095	0	0	0	0	0	0	-10.129062021448	0	68.27975714422226	44.83564641187239	0	0	0	-10.129062021448	0	68.27975714422226	44.83564641187239	0	0
17.18333333333364	44.98248855801831	-20.37514460090072	-20.71244384861913	0	0.9399999999999999	0	39.43062834946523	-9.960301644255766	0	55.44108077527454	0.9676294003926712	-4.995313949164164	0	0	48.89768231529708	-6.764299539291436	3.590017356730888	97.68758085128358	1.704969924163064	-4.995313949164164	0	0	0	0	0	0	-10.12910566627853	0	68.27987050411036	44.83565356014434	0	0	0	-10.12910566627853	0	68.27987050411036	44.83565356014434	0	0
17.2000000000003	44.94171400102901	-20.41682969386343	-20.75521292735101	0	0.9399999999999999	0	39.43155326957812	-9.960324407040194	0	55.44167821051043	0.9676398276046049	-4.99531744949205	0	0	48.85718230526803	-6.754337913127598	3.586376936972901	97.56505927681528	1.702831519283864	-4.99531744949205	0	0	0	0	0	0	-10.12951990894591	0	68.28098932769943	44.83572819045969	0	3.567010256606124e-51	0	-10.12951990894591	0	68.28098932769943	44.83572819045969	0	3.567010256606124e-51
17.21666666666697	44.9333565774237	-20.40330711137084	-20.80731122138546	0	0.9399999999999999	0	39.44914488343358	-9.960705513222775	0	55.45310597486174	0.9678392797186772	-4.995373089959414	0	0	48.81537331045206	-6.777884592983783	3.549542932958611	97.45860059495551	1.700973464768078	-4.995373089959414	0	0	0	0	0	0	-10.13759264445941	0	68.30226017827557	44.83702465649203	0	0	0	-10.13759264445941	0	68.30226017827557	44.83702465649203	0	0
17.23333333333364	44.92440028315734	-20.36973751958512	-20.85898448681832	0	0.9399999999999999	0	39.46835772828715	-9.961126616992905	0	55.46557697763271	0.968056939778056	-4.995434878516712	0	0	48.7701178026682	-6.797204792574414	3.504499266585378	97.33573068946512	1.698828980365657	-4.995434878516712	0	0	0	0	0	0	-10.14638953984195	0	68.32549231322831	44.83845224094279	0	0	0	-10.14638953984195	0	68.32549231322831	44.83845224094279	0	0
17.2500000000003	44.91335299710705	-20.36478066412479	-20.92198831628298	0	0.9399999999999999	0	39.48624575548165	-9.96150297386664	0	55.47723163416179	0.9682603519076776	-4.995489265730964	0	0	48.72750571358419	-6.818378162039743	3.473809654887866	97.22943355776898	1.696973745432133	-4.995489265730964	0	0	0	0	0	0	-10.15465521700737	0	68.34711926965397	44.83974256810308	0	0	0	-10.15465521700737	0	68.34711926965397	44.83974256810308	0	0
17.26666666666697	44.91672943426536	-20.38146163496785	-20.98999428513279	0	0.9399999999999999	0	39.48632937459266	-9.961504862697453	0	55.47728857854528	0.9682613457746601	-4.995489550379212	0	0	48.71470075430782	-6.79781588808727	3.479580879436006	97.22478954468015	1.696892692113227	-4.995489550379212	0	0	0	0	0	0	-10.15469426434908	0	68.34722038457862	44.83974886849618	0	0	0	-10.15469426434908	0	68.34722038457862	44.83974886849618	0	0
